<?xml version="1.0" encoding="UTF-8"?>
<svg width="958px" height="456px" viewBox="0 0 958 456" version="1.1" xmlns="http://www.w3.org/2000/svg" xmlns:xlink="http://www.w3.org/1999/xlink">
    <title>botvisibility-logo-white</title>
    <defs>
        <linearGradient x1="9.05989583%" y1="50%" x2="93.1276042%" y2="50%" id="linearGradient-1">
            <stop stop-color="#059AFA" offset="0%"></stop>
            <stop stop-color="#000000" offset="50.141978%"></stop>
            <stop stop-color="#059AFA" offset="100%"></stop>
        </linearGradient>
        <path d="M119.165049,138.956897 C163.040408,138.956897 202.762091,115.797414 238.330097,69.4784483 C202.762091,23.1594826 163.040408,0 119.165049,0 C75.2896892,0 35.5680063,23.1594826 0,69.4784483 C35.5680063,115.797414 75.2896892,138.956897 119.165049,138.956897 Z" id="path-2"></path>
        <path d="M119.165049,138.956897 C163.040408,138.956897 202.762091,115.797414 238.330097,69.4784483 C202.762091,23.1594826 163.040408,0 119.165049,0 C75.2896892,0 35.5680063,23.1594826 0,69.4784483 C35.5680063,115.797414 75.2896892,138.956897 119.165049,138.956897 Z" id="path-4"></path>
        <path d="M119.165049,138.956897 C163.040408,138.956897 202.762091,115.797414 238.330097,69.4784483 C202.762091,23.1594826 163.040408,0 119.165049,0 C75.2896892,0 35.5680063,23.1594826 0,69.4784483 C35.5680063,115.797414 75.2896892,138.956897 119.165049,138.956897 Z" id="path-6"></path>
        <path d="M119.165049,138.956897 C163.040408,138.956897 202.762091,115.797414 238.330097,69.4784483 C202.762091,23.1594826 163.040408,0 119.165049,0 C75.2896892,0 35.5680063,23.1594826 0,69.4784483 C35.5680063,115.797414 75.2896892,138.956897 119.165049,138.956897 Z" id="path-8"></path>
        <path d="M119.165049,138.956897 C163.040408,138.956897 202.762091,115.797414 238.330097,69.4784483 C202.762091,23.1594826 163.040408,0 119.165049,0 C75.2896892,0 35.5680063,23.1594826 0,69.4784483 C35.5680063,115.797414 75.2896892,138.956897 119.165049,138.956897 Z" id="path-10"></path>
        <path d="M119.165049,138.956897 C163.040408,138.956897 202.762091,115.797414 238.330097,69.4784483 C202.762091,23.1594826 163.040408,0 119.165049,0 C75.2896892,0 35.5680063,23.1594826 0,69.4784483 C35.5680063,115.797414 75.2896892,138.956897 119.165049,138.956897 Z" id="path-12"></path>
        <path d="M112.15534,130.37931 C153.449796,130.37931 190.834909,108.649425 224.31068,65.1896552 C190.834909,21.7298849 153.449796,0 112.15534,0 C70.8608839,0 33.4757707,21.7298849 0,65.1896552 C33.4757707,108.649425 70.8608839,130.37931 112.15534,130.37931 Z" id="path-14"></path>
        <path d="M112.15534,130.37931 C153.449796,130.37931 190.834909,108.649425 224.31068,65.1896552 C190.834909,21.7298849 153.449796,0 112.15534,0 C70.8608839,0 33.4757707,21.7298849 0,65.1896552 C33.4757707,108.649425 70.8608839,130.37931 112.15534,130.37931 Z" id="path-16"></path>
        <path d="M112.15534,130.37931 C153.449796,130.37931 190.834909,108.649425 224.31068,65.1896552 C190.834909,21.7298849 153.449796,0 112.15534,0 C70.8608839,0 33.4757707,21.7298849 0,65.1896552 C33.4757707,108.649425 70.8608839,130.37931 112.15534,130.37931 Z" id="path-18"></path>
        <path d="M112.15534,130.37931 C153.449796,130.37931 190.834909,108.649425 224.31068,65.1896552 C190.834909,21.7298849 153.449796,0 112.15534,0 C70.8608839,0 33.4757707,21.7298849 0,65.1896552 C33.4757707,108.649425 70.8608839,130.37931 112.15534,130.37931 Z" id="path-20"></path>
        <path d="M112.15534,130.37931 C153.449796,130.37931 190.834909,108.649425 224.31068,65.1896552 C190.834909,21.7298849 153.449796,0 112.15534,0 C70.8608839,0 33.4757707,21.7298849 0,65.1896552 C33.4757707,108.649425 70.8608839,130.37931 112.15534,130.37931 Z" id="path-22"></path>
        <path d="M112.15534,130.37931 C153.449796,130.37931 190.834909,108.649425 224.31068,65.1896552 C190.834909,21.7298849 153.449796,0 112.15534,0 C70.8608839,0 33.4757707,21.7298849 0,65.1896552 C33.4757707,108.649425 70.8608839,130.37931 112.15534,130.37931 Z" id="path-24"></path>
        <path d="M112.15534,130.37931 C153.449796,130.37931 190.834909,108.649425 224.31068,65.1896552 C190.834909,21.7298849 153.449796,0 112.15534,0 C70.8608839,0 33.4757707,21.7298849 0,65.1896552 C33.4757707,108.649425 70.8608839,130.37931 112.15534,130.37931 Z" id="path-26"></path>
    </defs>
    <g id="botvisibility-logo-white" stroke="none" fill="none" fill-rule="evenodd" stroke-width="1">
        <g id="botvisibility">
            <rect id="Rectangle-2" fill="url(#linearGradient-1)" x="0" y="29" width="900" height="268" rx="40"></rect>
            <path d="M250.45105,207.340678 C250.45105,218.951045 248.146189,228.709758 243.536465,236.616818 C238.926741,244.523878 232.813847,250.879552 225.197782,255.683842 C217.581717,260.488131 208.913432,263.941214 199.192928,266.043091 C189.472424,268.144968 179.501391,269.195906 169.27983,269.195906 L84.501,269.195906 L84.501,56.6060938 L169.27983,56.6060938 C177.497163,56.6060938 185.91492,57.4568534 194.533099,59.1583727 C203.151278,60.8598919 210.967765,63.7624835 217.982562,67.8661475 C224.997359,71.9698114 230.709408,77.5247712 235.118709,84.5310268 C239.52801,91.5372824 241.73266,100.445236 241.73266,111.254887 C241.73266,123.065433 238.525896,132.824146 232.112367,140.531027 C225.698839,148.237908 217.281083,153.792868 206.859099,157.195906 L206.859099,157.796442 C212.871782,158.797336 218.533725,160.648989 223.844928,163.351402 C229.156131,166.053815 233.765855,169.506898 237.674099,173.710651 C241.582343,177.914405 244.688896,182.818784 246.993758,188.423788 C249.298619,194.028793 250.45105,200.334423 250.45105,207.340678 Z M192.128025,118.161054 C192.128025,110.954619 189.372212,105.699928 183.860586,102.396979 C178.34896,99.0940295 170.181733,97.442555 159.358903,97.442555 L134.105635,97.442555 L134.105635,141.281697 L161.763976,141.281697 C171.384269,141.281697 178.850017,139.329954 184.16122,135.426469 C189.472424,131.522984 192.128025,125.767845 192.128025,118.161054 Z M199.042611,202.536389 C199.042611,193.728525 195.735635,187.623073 189.121684,184.220035 C182.507733,180.816996 173.689131,179.115477 162.665879,179.115477 L134.105635,179.115477 L134.105635,227.758909 L162.966513,227.758909 C166.974968,227.758909 171.133741,227.408596 175.44283,226.707971 C179.75192,226.007345 183.660164,224.756228 187.167562,222.954619 C190.67496,221.153011 193.530985,218.600732 195.735635,215.297783 C197.940286,211.994834 199.042611,207.741036 199.042611,202.536389 Z" id="Shape" fill="#FFFFFF" fill-rule="nonzero"></path>
            <polygon id="Path" fill="#FFFFFF" fill-rule="nonzero" points="773.37417 100.445236 773.37417 269.195906 721.965731 269.195906 721.965731 100.445236 661.838901 100.445236 661.838901 56.6060938 833.501 56.6060938 833.501 100.445236"></polygon>
            <text id="VISIBILITY" font-family="DINCondensed-Bold, DIN Condensed" font-size="130" font-style="condensed" font-weight="bold" letter-spacing="54.3479249" fill="#FFFFFF">
                <tspan x="0" y="419">VISIBILITY</tspan>
            </text>
            <g id="Group" transform="translate(300, 0)">
                <g transform="translate(-0, 0.5418)">
                    <ellipse id="Oval" fill="#059AFA" cx="161.325782" cy="163.553022" rx="119.165049" ry="119.405172"></ellipse>
                    <ellipse id="Oval" fill="#000000" cx="161.325782" cy="161.458194" rx="100.349515" ry="100.551724"></ellipse>
                    <ellipse id="Oval" fill="#FFFFFF" cx="161.5" cy="161.632763" rx="85.5409924" ry="85.7133621"></ellipse>
                    <ellipse id="Oval" fill="#02162D" cx="161.325782" cy="161.458194" rx="69.3387271" ry="69.4784483"></ellipse>
                    <ellipse id="Oval" fill="#FFFFFF" cx="161.325782" cy="161.458194" rx="52.613808" ry="52.7198276"></ellipse>
                    <ellipse id="Oval" fill="#059BFA" cx="161.325782" cy="161.458194" rx="36.2373247" ry="36.3103448"></ellipse>
                    <ellipse id="Oval" fill="#03162B" cx="161.325782" cy="161.458194" rx="23.6936354" ry="23.7413793"></ellipse>
                    <ellipse id="Oval" fill="#079BFA" cx="161.325782" cy="161.458194" rx="8.71089536" ry="8.72844828"></ellipse>
                    <g id="Oval-2" transform="translate(42.1607, 91.9797)" fill="#021A32">
                        <path d="M119.165049,138.956897 C163.040408,138.956897 202.762091,115.797414 238.330097,69.4784483 C202.762091,23.1594826 163.040408,0 119.165049,0 C75.2896892,0 35.5680063,23.1594826 0,69.4784483 C35.5680063,115.797414 75.2896892,138.956897 119.165049,138.956897 Z" id="path-1"></path>
                    </g>
                    <g id="Oval-Clipped" transform="translate(42.1607, 91.9797)">
                        <mask id="mask-3" fill="white">
                            <use xlink:href="#path-2"></use>
                        </mask>
                        <g id="path-1"></g>
                        <ellipse id="Oval" fill="#059AFA" mask="url(#mask-3)" cx="119.339266" cy="69.6530172" rx="85.5409924" ry="85.7133621"></ellipse>
                    </g>
                    <g id="Oval-Clipped" transform="translate(42.1607, 91.9797)">
                        <mask id="mask-5" fill="white">
                            <use xlink:href="#path-4"></use>
                        </mask>
                        <g id="path-1"></g>
                        <ellipse id="Oval" fill="#02162D" mask="url(#mask-5)" cx="119.165049" cy="69.4784483" rx="69.3387271" ry="69.4784483"></ellipse>
                    </g>
                    <g id="Oval-Clipped" transform="translate(42.1607, 91.9797)">
                        <mask id="mask-7" fill="white">
                            <use xlink:href="#path-6"></use>
                        </mask>
                        <g id="path-1"></g>
                        <ellipse id="Oval" fill="#FFFFFF" mask="url(#mask-7)" cx="119.165049" cy="69.4784483" rx="52.613808" ry="52.7198276"></ellipse>
                    </g>
                    <g id="Oval-Clipped" transform="translate(42.1607, 91.9797)">
                        <mask id="mask-9" fill="white">
                            <use xlink:href="#path-8"></use>
                        </mask>
                        <g id="path-1"></g>
                        <ellipse id="Oval" fill="#00B2F4" mask="url(#mask-9)" cx="119.165049" cy="69.4784483" rx="36.2373247" ry="36.3103448"></ellipse>
                    </g>
                    <g id="Oval-Clipped" transform="translate(42.1607, 91.9797)">
                        <mask id="mask-11" fill="white">
                            <use xlink:href="#path-10"></use>
                        </mask>
                        <g id="path-1"></g>
                        <ellipse id="Oval" fill="#03162B" mask="url(#mask-11)" cx="119.165049" cy="69.4784483" rx="23.6936354" ry="23.7413793"></ellipse>
                    </g>
                    <g id="Oval-Clipped" transform="translate(42.1607, 91.9797)">
                        <mask id="mask-13" fill="white">
                            <use xlink:href="#path-12"></use>
                        </mask>
                        <g id="path-1"></g>
                        <ellipse id="Oval" fill="#059BFA" mask="url(#mask-13)" cx="119.165049" cy="69.4784483" rx="8.71089536" ry="8.72844828"></ellipse>
                    </g>
                    <g id="Rectangle" transform="translate(0, 159.3634)" fill="#FFFFFF">
                        <path d="M73.3457389,-71.0763424 C74.5990921,-71.0763424 75.6151355,-70.0623423 75.6151355,-68.8115096 L75.6151355,73.3503027 C75.6151355,74.6011354 74.5990921,75.6151355 73.3457389,75.6151355 C72.0923858,75.6151355 71.0763424,74.6011354 71.0763424,73.3503027 L71.0763424,-68.8115096 C71.0763424,-70.0623423 72.0923858,-71.0763424 73.3457389,-71.0763424 Z" id="Path" transform="translate(73.3457, 2.2694) rotate(90) translate(-73.3457, -2.2694)"></path>
                        <path d="M249.654261,-71.0763424 C250.907614,-71.0763424 251.923658,-70.0623423 251.923658,-68.8115096 L251.923658,73.3503027 C251.923658,74.6011354 250.907614,75.6151355 249.654261,75.6151355 C248.400908,75.6151355 247.384865,74.6011354 247.384865,73.3503027 L247.384865,-68.8115096 C247.384865,-70.0623423 248.400908,-71.0763424 249.654261,-71.0763424 Z" id="Path" transform="translate(249.6543, 2.2694) rotate(90) translate(-249.6543, -2.2694)"></path>
                    </g>
                    <g id="Rectangle" transform="translate(161.3258, 161.4582) rotate(90) translate(-161.3258, -161.4582)translate(-0.1742, 159.1888)" fill="#FFFFFF">
                        <path d="M73.3457389,-71.0763424 C74.5990921,-71.0763424 75.6151355,-70.0623423 75.6151355,-68.8115096 L75.6151355,73.3503027 C75.6151355,74.6011354 74.5990921,75.6151355 73.3457389,75.6151355 C72.0923858,75.6151355 71.0763424,74.6011354 71.0763424,73.3503027 L71.0763424,-68.8115096 C71.0763424,-70.0623423 72.0923858,-71.0763424 73.3457389,-71.0763424 Z" id="Path" transform="translate(73.3457, 2.2694) rotate(90) translate(-73.3457, -2.2694)"></path>
                        <path d="M249.654261,-71.0763424 C250.907614,-71.0763424 251.923658,-70.0623423 251.923658,-68.8115096 L251.923658,73.3503027 C251.923658,74.6011354 250.907614,75.6151355 249.654261,75.6151355 C248.400908,75.6151355 247.384865,74.6011354 247.384865,73.3503027 L247.384865,-68.8115096 C247.384865,-70.0623423 248.400908,-71.0763424 249.654261,-71.0763424 Z" id="Path" transform="translate(249.6543, 2.2694) rotate(90) translate(-249.6543, -2.2694)"></path>
                    </g>
                </g>
                <g id="ddd" transform="translate(9, 10)">
                    <g id="Group" transform="translate(0, 0.1638)">
                        <ellipse id="Oval" fill="#FFFFFF" cx="151.83603" cy="154.12931" rx="130.192017" ry="130.051724"></ellipse>
                        <ellipse id="Oval" fill="#059AFA" cx="151.83603" cy="153.801724" rx="112.15534" ry="112.034483"></ellipse>
                        <ellipse id="Oval" fill="#000000" cx="151.83603" cy="151.836207" rx="94.4466019" ry="94.3448276"></ellipse>
                        <ellipse id="Oval" fill="#FFFFFF" cx="152" cy="152" rx="80.5091694" ry="80.4224138"></ellipse>
                        <ellipse id="Oval" fill="#02162D" cx="151.83603" cy="151.836207" rx="65.2599784" ry="65.1896552"></ellipse>
                        <ellipse id="Oval" fill="#FFFFFF" cx="151.83603" cy="151.836207" rx="49.5188781" ry="49.4655172"></ellipse>
                        <ellipse id="Oval" fill="#059BFA" cx="151.83603" cy="151.836207" rx="34.1057174" ry="34.0689655"></ellipse>
                        <ellipse id="Oval" fill="#03162B" cx="151.83603" cy="151.836207" rx="22.2998921" ry="22.2758621"></ellipse>
                        <ellipse id="Oval" fill="#079BFA" cx="151.83603" cy="151.836207" rx="8.19848975" ry="8.18965517"></ellipse>
                        <g id="Oval-2" transform="translate(39.6807, 86.6466)" fill="#000000">
                            <path d="M112.15534,130.37931 C153.449796,130.37931 190.834909,108.649425 224.31068,65.1896552 C190.834909,21.7298849 153.449796,0 112.15534,0 C70.8608839,0 33.4757707,21.7298849 0,65.1896552 C33.4757707,108.649425 70.8608839,130.37931 112.15534,130.37931 Z" id="path-1"></path>
                        </g>
                        <g id="Oval-Clipped" transform="translate(39.6807, 86.6466)">
                            <mask id="mask-15" fill="white">
                                <use xlink:href="#path-14"></use>
                            </mask>
                            <g id="path-1"></g>
                            <ellipse id="Oval" fill="#FFFFFF" mask="url(#mask-15)" cx="112.15534" cy="65.1896552" rx="94.4466019" ry="94.3448276"></ellipse>
                        </g>
                        <g id="Oval-Clipped" transform="translate(39.6807, 86.6466)">
                            <mask id="mask-17" fill="white">
                                <use xlink:href="#path-16"></use>
                            </mask>
                            <g id="path-1"></g>
                            <ellipse id="Oval" fill="#059AFA" mask="url(#mask-17)" cx="112.31931" cy="65.3534483" rx="80.5091694" ry="80.4224138"></ellipse>
                        </g>
                        <g id="Oval-Clipped" transform="translate(39.6807, 86.6466)">
                            <mask id="mask-19" fill="white">
                                <use xlink:href="#path-18"></use>
                            </mask>
                            <g id="path-1"></g>
                            <ellipse id="Oval" fill="#02162D" mask="url(#mask-19)" cx="112.15534" cy="65.1896552" rx="65.2599784" ry="65.1896552"></ellipse>
                        </g>
                        <g id="Oval-Clipped" transform="translate(39.6807, 86.6466)">
                            <mask id="mask-21" fill="white">
                                <use xlink:href="#path-20"></use>
                            </mask>
                            <g id="path-1"></g>
                            <ellipse id="Oval" fill="#FFFFFF" mask="url(#mask-21)" cx="112.15534" cy="65.1896552" rx="49.5188781" ry="49.4655172"></ellipse>
                        </g>
                        <g id="Oval-Clipped" transform="translate(39.6807, 86.6466)">
                            <mask id="mask-23" fill="white">
                                <use xlink:href="#path-22"></use>
                            </mask>
                            <g id="path-1"></g>
                            <ellipse id="Oval" fill="#00B2F4" mask="url(#mask-23)" cx="112.15534" cy="65.1896552" rx="34.1057174" ry="34.0689655"></ellipse>
                        </g>
                        <g id="Oval-Clipped" transform="translate(39.6807, 86.6466)">
                            <mask id="mask-25" fill="white">
                                <use xlink:href="#path-24"></use>
                            </mask>
                            <g id="path-1"></g>
                            <ellipse id="Oval" fill="#03162B" mask="url(#mask-25)" cx="112.15534" cy="65.1896552" rx="22.2998921" ry="22.2758621"></ellipse>
                        </g>
                        <g id="Oval-Clipped" transform="translate(39.6807, 86.6466)">
                            <mask id="mask-27" fill="white">
                                <use xlink:href="#path-26"></use>
                            </mask>
                            <g id="path-1"></g>
                            <ellipse id="Oval" fill="#059BFA" mask="url(#mask-27)" cx="112.15534" cy="65.1896552" rx="8.19848975" ry="8.18965517"></ellipse>
                        </g>
                        <g id="Rectangle" transform="translate(0, 149.8707)" fill="#FFFFFF">
                            <path d="M69.0312837,-66.9019734 C70.2072694,-66.9019734 71.1605941,-65.9476203 71.1605941,-64.770366 L71.1605941,69.0289867 C71.1605941,70.206241 70.2072694,71.1605941 69.0312837,71.1605941 C67.855298,71.1605941 66.9019734,70.206241 66.9019734,69.0289867 L66.9019734,-64.770366 C66.9019734,-65.9476203 67.855298,-66.9019734 69.0312837,-66.9019734 Z" id="Path" transform="translate(69.0313, 2.1293) rotate(90) translate(-69.0313, -2.1293)"></path>
                            <path d="M234.968716,-66.9019734 C236.144702,-66.9019734 237.098027,-65.9476203 237.098027,-64.770366 L237.098027,69.0289867 C237.098027,70.206241 236.144702,71.1605941 234.968716,71.1605941 C233.792731,71.1605941 232.839406,70.206241 232.839406,69.0289867 L232.839406,-64.770366 C232.839406,-65.9476203 233.792731,-66.9019734 234.968716,-66.9019734 Z" id="Path" transform="translate(234.9687, 2.1293) rotate(90) translate(-234.9687, -2.1293)"></path>
                        </g>
                        <g id="Rectangle" transform="translate(151.836, 151.8362) rotate(90) translate(-151.836, -151.8362)translate(-0.164, 149.7069)" fill="#FFFFFF">
                            <path d="M69.0312837,-66.9019734 C70.2072694,-66.9019734 71.1605941,-65.9476203 71.1605941,-64.770366 L71.1605941,69.0289867 C71.1605941,70.206241 70.2072694,71.1605941 69.0312837,71.1605941 C67.855298,71.1605941 66.9019734,70.206241 66.9019734,69.0289867 L66.9019734,-64.770366 C66.9019734,-65.9476203 67.855298,-66.9019734 69.0312837,-66.9019734 Z" id="Path" transform="translate(69.0313, 2.1293) rotate(90) translate(-69.0313, -2.1293)"></path>
                            <path d="M234.968716,-66.9019734 C236.144702,-66.9019734 237.098027,-65.9476203 237.098027,-64.770366 L237.098027,69.0289867 C237.098027,70.206241 236.144702,71.1605941 234.968716,71.1605941 C233.792731,71.1605941 232.839406,70.206241 232.839406,69.0289867 L232.839406,-64.770366 C232.839406,-65.9476203 233.792731,-66.9019734 234.968716,-66.9019734 Z" id="Path" transform="translate(234.9687, 2.1293) rotate(90) translate(-234.9687, -2.1293)"></path>
                        </g>
                    </g>
                </g>
            </g>
        </g>
    </g>
</svg>